<svg id="SvgjsSvg1013" width="288" height="288" xmlns="http://www.w3.org/2000/svg" version="1.1" xmlns:xlink="http://www.w3.org/1999/xlink" xmlns:svgjs="http://svgjs.com/svgjs"><defs id="SvgjsDefs1014"></defs><g id="SvgjsG1015"><svg xmlns="http://www.w3.org/2000/svg" fill-rule="evenodd" stroke-linejoin="round" stroke-miterlimit="2" clip-rule="evenodd" viewBox="0 0 24 24" width="288" height="288"><g transform="translate(-40 -40)" fill="#7289da" class="color000 svgShape"><rect width="24" height="24" x="40" y="40" fill="none"></rect><path fill="#7289da" d="M347.204,305.054C347.112,305.112 347.013,305.179 346.902,305.258C346.497,305.546 345.934,305.45 345.647,305.045C345.359,304.64 345.454,304.078 345.86,303.79C346.562,303.292 346.888,303.145 347.711,302.89L347.744,302.88C348.744,302.612 349.333,302.785 349.698,303.048C350.008,303.272 350.216,303.597 350.329,304.018C350.469,304.539 350.413,305.184 350.264,305.769C350.073,306.516 349.753,307.151 349.753,307.151C349.53,307.595 348.989,307.775 348.545,307.552C348.201,307.379 348.016,307.015 348.054,306.653C346.777,307.586 344.648,308.505 341.121,308.814C337.118,309.107 333.16,307.783 330.139,305.14C329.765,304.813 329.727,304.244 330.054,303.871C330.381,303.497 330.95,303.459 331.324,303.786C333.983,306.111 337.466,307.276 340.976,307.019C344.389,306.72 346.235,305.84 347.204,305.054ZM342.033,295.622C342.026,295.391 342.014,295.163 341.996,294.938C341.788,292.381 339.086,292.798 338.055,293.137C336.774,293.559 336.404,295.093 336.404,295.093C336.278,295.574 335.786,295.862 335.305,295.736C334.825,295.61 334.537,295.118 334.663,294.638C334.663,294.638 335.35,292.132 337.493,291.427C339.191,290.868 343.447,290.579 343.79,294.793C343.92,296.398 343.73,298.191 343.745,299.797C343.748,300.095 343.754,300.386 343.773,300.667C343.785,300.723 343.792,300.781 343.793,300.841C343.793,300.865 343.793,300.889 343.792,300.913C343.872,301.754 344.08,302.481 344.627,302.971C344.997,303.302 345.028,303.872 344.697,304.242C344.366,304.612 343.796,304.643 343.426,304.312C343.013,303.942 342.704,303.49 342.477,302.973C342.017,303.298 341.451,303.583 340.832,303.794C339.688,304.184 338.37,304.323 337.272,304.071C335.984,303.776 334.972,302.985 334.654,301.539C334.317,300.002 334.509,298.855 334.973,297.998C335.674,296.701 337.044,296.018 338.522,295.735C339.8,295.49 341.143,295.54 342.033,295.622ZM342.014,297.426C341.263,297.346 340.03,297.279 338.861,297.503C337.922,297.683 337.001,298.031 336.556,298.854C336.256,299.409 336.194,300.157 336.412,301.153C336.562,301.834 337.067,302.177 337.674,302.317C338.47,302.499 339.422,302.373 340.251,302.09C340.792,301.906 341.282,301.654 341.632,301.356C341.813,301.201 341.983,301.065 341.992,300.892C341.99,300.862 341.987,300.832 341.985,300.802C341.903,299.76 341.972,298.593 342.014,297.426Z" transform="translate(-288 -248)" class="color2c2c2c svgShape"></path></g></svg></g></svg>