<svg id="SvgjsSvg1014" width="288" height="288" xmlns="http://www.w3.org/2000/svg" version="1.1" xmlns:xlink="http://www.w3.org/1999/xlink" xmlns:svgjs="http://svgjs.com/svgjs"><defs id="SvgjsDefs1015"></defs><g id="SvgjsG1016"><svg xmlns="http://www.w3.org/2000/svg" fill-rule="evenodd" stroke-linejoin="round" stroke-miterlimit="2" clip-rule="evenodd" viewBox="0 0 24 24" width="288" height="288"><g transform="translate(-40 -40)" fill="#7289da" class="color000 svgShape"><rect width="24" height="24" x="40" y="40" fill="none"></rect><path fill="#7289da" d="M9.17,4.17L9.17,29C9.17,29.646 8.646,30.17 8,30.17C7.354,30.17 6.83,29.646 6.83,29L6.83,3C6.83,2.354 7.354,1.83 8,1.83L13.001,1.83C13.483,1.83 13.915,2.125 14.09,2.573L24.289,28.573C24.461,29.011 24.353,29.51 24.015,29.839C23.677,30.167 23.176,30.261 22.742,30.076C22.742,30.076 19.998,28.903 17.288,29.03C16.776,29.054 16.309,28.742 16.134,28.26L10.119,11.66C9.899,11.053 10.213,10.381 10.82,10.161C11.427,9.942 12.098,10.256 12.318,10.863L18.053,26.688C19.189,26.725 20.293,26.921 21.217,27.148L12.204,4.17L9.17,4.17Z" transform="translate(39.997 39.69) scale(.76941)" class="color2c2c2c svgShape"></path><path fill="#7289da" d="M12.093 26.818L12.093 16.902C12.093 16.257 12.617 15.732 13.263 15.732 13.908 15.732 14.432 16.257 14.432 16.902L14.432 27.862C14.432 28.508 13.909 29.031 13.263 29.031 12.468 29.031 11.651 29.361 11.651 29.361 11.051 29.599 10.37 29.306 10.132 28.706 9.893 28.106 10.186 27.425 10.786 27.187 10.786 27.187 11.352 26.964 12.093 26.818zM18.191 4.17L18.191 13.248C18.191 13.894 17.667 14.418 17.021 14.418 16.376 14.418 15.852 13.894 15.852 13.248L15.852 3C15.852 2.354 16.375 1.83 17.021 1.83L23.2 1.83C23.846 1.83 24.37 2.354 24.37 3L24.37 29C24.37 29.646 23.845 30.17 23.2 30.17 22.554 30.17 22.03 29.646 22.03 29L22.03 4.17 18.191 4.17z" transform="translate(39.997 39.69) scale(.76941)" class="color2c2c2c svgShape"></path></g></svg></g></svg>